<?xml version="1.0" encoding="UTF-8"?>
<svg id="Layer_1" data-name="Layer 1" xmlns="http://www.w3.org/2000/svg" viewBox="0 0 397.38 251.1">
  <defs>
    <style>
      .cls-1 {
        fill: #e78424;
      }
      .cls-2 {
        font-family: SegoeUIVariable-BoldText, 'Segoe UI Variable';
        font-size: 63.71px;
        font-variation-settings: 'wght' 700, 'opsz' 10;
        font-weight: 700;
      }
      .cls-2, .cls-3 {
        fill: #133d65;
      }
    </style>
  </defs>
  <path class="cls-3" d="m137.97,81.17L30.78,1.4c-3.14-2.33-7.57-1.68-9.91,1.45l-9.57,12.86,30.22,22.49c.61-.98,1.29-1.9,2.08-2.73,3.76-3.91,9.41-5.98,15.52-4.6,5.41,1.22,9.85,5.38,11.63,10.63,1.67,4.94.83,9.49-1.28,13.23-.57,1-1.26,1.92-2.02,2.78l51.03,37.98c3.14,2.33,7.57,1.68,9.91-1.45l9.57-12.86Z"/>
  <path class="cls-3" d="m52.41,54.48c.92.35,1.9.56,2.94.56,2.47,0,4.66-1.1,6.17-2.82.39-.44.74-.91,1.03-1.42.68-1.21,1.11-2.58,1.11-4.07,0-4.59-3.72-8.31-8.31-8.31-2.36,0-4.47.99-5.98,2.56-.4.42-.75.89-1.06,1.39-.79,1.27-1.26,2.75-1.26,4.35,0,.42.06.83.12,1.23.45,3,2.49,5.47,5.25,6.51Z"/>
  <path class="cls-3" d="m138.48,239.68l-40.88-35.34c.32,1.24.54,2.53.54,3.87,0,8.66-7.02,15.69-15.69,15.69s-15.69-7.02-15.69-15.69c0-2.35.55-4.55,1.47-6.55l-43.98,38.02h114.22Z"/>
  <path class="cls-1" d="m85.08,202.44c-.35-.12-1.06-.35-1.06-.35,0,0-2-.42-2.97-.5-2.92-.26-5.5.27-7.11,1.45-.52.38-.9.85-1.19,1.35-.16.27-.33.53-.41.84-.87,3.23,2.96,7.06,8.55,8.56,5.59,1.5,10.82.1,11.68-3.13.03-.1.02-.19.04-.29.07-.41.07-.83,0-1.25-.4-2.6-3.37-5.27-7.52-6.67Z"/>
  <text class="cls-2" transform="translate(55.34 149.01)"><tspan x="0" y="0">Seneca</tspan></text>
  <path class="cls-1" d="m136.54,170.14c-12.56,12.57-29.98,20.26-49.34,20.26-38.32,0-69.39-31.07-69.39-69.39,0-24.63,12.85-46.24,32.2-58.55h-.02s-.41-.52-.41-.52c-5.42-2.06-9.41-6.89-10.29-12.78l-.53-.65C15.39,64.14,0,90.78,0,121.01c0,41.22,28.6,75.73,67.04,84.83.24-1.46.6-2.88,1.2-4.18,1.87-4.04,5.4-7.1,9.72-8.4,1.43-.43,2.92-.73,4.49-.73.57,0,1.12.11,1.67.17,6.56.71,11.88,5.4,13.47,11.65.26,1.01.42,2.05.48,3.12,25.34-3.17,47.22-17.23,60.97-37.32h-22.51Z"/>
  <polygon class="cls-1" points="227.09 162.29 182.08 162.29 63.65 162.29 63.65 170.14 102.03 170.14 113.89 170.14 140.38 170.14 153.89 170.14 183.52 170.14 206.45 170.14 264.94 170.14 264.94 162.29 227.09 162.29"/>
  <text class="cls-2" transform="translate(159.04 231.78)"><tspan x="0" y="0">ProMed</tspan></text>
  <polygon class="cls-3" points="319.29 239.68 231.37 239.68 0 239.68 0 247.52 74.98 247.52 98.14 247.52 149.9 247.52 176.28 247.52 234.18 247.52 278.97 247.52 393.25 247.52 393.25 239.68 319.29 239.68"/>
</svg>